<svg width="100%" height="100%" viewBox="0 0 1346 1292" version="1.1" xmlns="http://www.w3.org/2000/svg" xmlns:xlink="http://www.w3.org/1999/xlink" xml:space="preserve" xmlns:serif="http://www.serif.com/" style="fill-rule:evenodd;clip-rule:evenodd;stroke-linejoin:round;stroke-miterlimit:2;"><g><g><g><g><path d="M580,521.667l0,232.5l-0.833,0.417l0.833,1.667l0,202.083c0,30.833 -5,60.833 -14.167,90c-13.333,42.083 -36.25,81.667 -65.417,115c-12.5,15.417 -28.333,26.667 -45,37.083c-7.5,4.583 -15.417,9.167 -23.333,13.333c-103.333,56.667 -233.333,60 -340,9.583c-23.75,-11.25 -46.25,-25.417 -65.833,-42.917c38.75,-38.75 77.5,-77.083 116.25,-115.833c30.417,23.75 69.167,36.667 107.083,36.667c40.417,2.5 82.917,-7.5 115,-32.917c33.333,-27.5 52.5,-70 53.75,-113.333c-47.083,-10.833 -93.333,-27.5 -135.417,-51.25c-126.667,-70.417 -217.083,-200.417 -241.25,-343.333c-20,-108.75 0.833,-224.167 56.25,-319.583c64.167,-110.833 173.75,-193.333 297.5,-225.833l0,91.25c0,45.833 -21.667,88.75 -58.75,115.417c-71.667,52.083 -123.333,132.5 -133.75,220.833c-7.917,69.583 5.417,141.667 40.833,202.5c38.75,65.833 100.417,118.75 174.167,141.25l0,-369.583c54.167,-35.417 108.333,-70.417 162.5,-105.417c-0.417,70.833 -0.417,140.417 -0.417,210.417Z" style="fill:#fff;fill-rule:nonzero;"/><path d="M580,753.75l0,2.083l-0.417,-1.667l0.417,-0.417Z" style="fill:#fff;fill-rule:nonzero;"/><path d="M579.583,754.167l0.833,1.667l0,-2.083l-0.833,0.417Z" style="fill:#fff;fill-rule:nonzero;"/></g><g><path d="M579.583,754.167l0.833,1.667l0,-2.083l-0.833,0.417Z" style="fill:#fff;fill-rule:nonzero;"/><path d="M952.5,710c-35.833,64.583 -84.583,122.5 -145,165.417c-50,36.25 -107.5,61.667 -167.5,76.25c0.417,-2.917 1.667,-8.333 2.083,-10.833c8.333,-27.083 3.75,-55.417 4.583,-82.917c-1.25,-25 3.75,-50.417 -4.583,-74.583c41.25,-16.25 78.333,-42.5 110,-73.333l200.417,0Z" style="fill:#fff;fill-rule:nonzero;"/></g></g><path d="M1332.083,833.333c0,61.25 -9.167,112.917 -27.083,154.583c-17.917,40.833 -42.083,74.167 -72.083,98.75c-30.417,25 -66.667,43.333 -107.917,54.167c-42.917,11.25 -89.167,17.083 -137.917,17.083l-439.583,0c1.25,-1.25 2.5,-2.917 3.75,-4.583c36.25,-41.25 62.5,-90.417 76.667,-142.083l358.75,0c24.167,0 47.5,-5.833 69.167,-17.083c20.833,-10.833 39.167,-25.833 54.583,-44.583c15,-17.917 27.083,-38.333 35.417,-60c8.75,-22.5 13.333,-45.417 13.333,-68.75c0,-48.333 -18.333,-89.583 -54.167,-122.5c-22.5,-20.417 -50.417,-34.583 -82.917,-42.083c-18.333,-4.167 -38.333,-6.25 -59.583,-6.25l-322.083,0c0,-80.833 65.833,-146.667 146.667,-146.667l157.5,0c27.5,0 52.083,-5.417 72.917,-16.25c20.417,-10.417 37.5,-24.583 51.667,-42.083c13.333,-16.667 24.167,-36.25 30.833,-57.5c7.083,-20.833 10.417,-41.667 10.417,-62.5c0,-20.833 -4.167,-41.667 -11.667,-61.667c-7.917,-19.583 -18.333,-36.667 -31.667,-51.25c-13.333,-14.583 -28.75,-26.667 -46.667,-35.833c-18.75,-9.583 -38.75,-14.583 -59.583,-14.583l-487.917,0c-22.083,0 -39.583,-17.917 -39.583,-39.583l0,-106.667l527.5,0c45.833,0 89.583,4.583 130,13.333c38.333,8.333 72.083,23.75 100,45.833c27.5,21.667 50,52.083 66.667,90.833c17.083,39.583 25.417,92.083 25.417,155.833c0,20.833 -4.583,43.333 -12.917,67.5c-8.75,24.583 -21.25,47.5 -36.25,68.333c0,0 -0.417,0.417 -1.25,1.25c-0.417,0.417 -0.417,0.833 -0.833,1.25c-0.417,0.417 -0.417,0.833 -0.833,1.25c-0.417,0.417 -0.417,0.417 -0.833,0.833c-8.333,10.833 -17.917,20.833 -28.333,30c-19.583,17.917 -47.917,40.417 -86.667,61.667c-4.167,2.5 -8.333,4.583 -12.917,6.667c0,0 4.583,2.083 12.5,5.833c21.667,10 67.083,32.5 104.583,58.75c1.667,1.25 3.333,2.5 5,3.333c19.583,14.167 36.667,29.583 46.667,44.167c16.667,20 30.833,42.917 42.083,68.333c12.5,28.75 19.167,60.417 19.167,92.917Z" style="fill:#ceff48;fill-rule:nonzero;"/></g></g></svg>